<?xml version="1.0" encoding="UTF-8" standalone="no"?>
<svg
   version="1.2"
   width="160.00999mm"
   height="160.00999mm"
   viewBox="0 0 16000.999 16000.999"
   preserveAspectRatio="xMidYMid"
   fill-rule="evenodd"
   stroke-width="28.222"
   stroke-linejoin="round"
   xml:space="preserve"
   id="svg46"
   sodipodi:docname="ycc_logo_new.svg"
   inkscape:version="1.3.2 (091e20e, 2023-11-25, custom)"
   xmlns:inkscape="http://www.inkscape.org/namespaces/inkscape"
   xmlns:sodipodi="http://sodipodi.sourceforge.net/DTD/sodipodi-0.dtd"
   xmlns="http://www.w3.org/2000/svg"
   xmlns:svg="http://www.w3.org/2000/svg"><defs
   id="defs46" /><sodipodi:namedview
   id="namedview46"
   pagecolor="#ffffff"
   bordercolor="#000000"
   borderopacity="0.25"
   inkscape:showpageshadow="2"
   inkscape:pageopacity="0.0"
   inkscape:pagecheckerboard="0"
   inkscape:deskcolor="#d1d1d1"
   inkscape:document-units="mm"
   inkscape:zoom="1.0520974"
   inkscape:cx="283.71899"
   inkscape:cy="448.15244"
   inkscape:window-width="2236"
   inkscape:window-height="1377"
   inkscape:window-x="-8"
   inkscape:window-y="-8"
   inkscape:window-maximized="0"
   inkscape:current-layer="svg46" />
 <g
   visibility="visible"
   id="MasterSlide_1_Default"
   transform="translate(-3000,-3000)">
  <desc
   id="desc1">Master slide
  </desc>
  <rect
   fill="none"
   stroke="none"
   x="0"
   y="0"
   width="21000"
   height="29700"
   id="rect1" />
 </g>
 <g
   visibility="visible"
   id="Slide_1_page1"
   transform="translate(-3000,-3000)">
  <g
   id="g2">
   <rect
   fill="none"
   stroke="none"
   x="3000"
   y="3000"
   width="16001"
   height="16001"
   id="rect2" />
   <path
   fill="#ff0000"
   stroke="none"
   id="Drawing_1_0"
   d="M 11000,19000 C 9527,19000 8275,18665 7000,17928 5725,17192 4808,16275 4072,15000 3335,13725 3000,12473 3000,11000 3000,9527 3335,8275 4072,7000 4808,5725 5725,4808 7000,4072 8275,3335 9527,3000 11000,3000 c 1473,0 2725,335 4000,1072 1275,736 2192,1653 2928,2928 737,1275 1072,2527 1072,4000 0,1473 -335,2725 -1072,4000 -736,1275 -1653,2192 -2928,2928 -1275,737 -2527,1072 -4000,1072 z" />
  </g>
  <g
   id="DrawingGroup_1">
   <g
   id="g3">
    <path
   fill="none"
   stroke="#ffffff"
   id="Drawing_2_0"
   stroke-width="150"
   stroke-linejoin="round"
   d="m 10981,12151 c -788,0 -1458,-66 -2140,-211 -682,-146 -1172,-327 -1566,-578 -394,-252 -573,-499 -573,-789 0,-291 179,-538 573,-790 394,-251 884,-432 1566,-578 682,-145 1352,-211 2139,-211 788,0 1458,66 2140,211 682,146 1172,327 1566,578 394,252 573,499 573,789 0,291 -179,538 -573,790 -394,251 -884,432 -1566,578 -682,145 -1352,211 -2139,211 z" />
   </g>
   <g
   id="g4">
    <path
   fill="none"
   stroke="#ffffff"
   id="Drawing_3_0"
   stroke-width="150"
   stroke-linejoin="round"
   d="m 12190,11536 c -507,603 -988,1073 -1538,1503 -549,429 -1003,688 -1449,828 -446,140 -750,118 -973,-68 -222,-187 -296,-483 -236,-947 60,-463 237,-955 564,-1571 327,-616 707,-1171 1213,-1775 506,-603 987,-1073 1537,-1502 550,-429 1004,-689 1449,-829 446,-140 751,-118 974,69 222,186 296,483 236,946 -61,463 -237,955 -564,1571 -328,616 -707,1171 -1213,1775 z" />
   </g>
   <g
   id="g5">
    <path
   fill="none"
   stroke="#ffffff"
   id="Drawing_4_0"
   stroke-width="150"
   stroke-linejoin="round"
   d="M 9771,11543 C 9264,10939 8885,10384 8558,9768 8231,9152 8054,8661 7994,8197 c -61,-463 13,-760 236,-946 222,-187 527,-208 973,-69 446,140 899,400 1449,829 550,429 1031,899 1537,1503 506,603 886,1158 1213,1774 327,616 504,1108 564,1571 61,464 -13,760 -236,947 -222,186 -527,208 -973,68 -446,-140 -899,-399 -1449,-828 -550,-430 -1031,-900 -1537,-1503 z" />
   </g>
   <g
   id="g6">
    <path
   fill="none"
   stroke="#ffffff"
   id="Drawing_5_0"
   stroke-width="600"
   stroke-linejoin="round"
   d="m 11006,15308 c -2048,49 -4411,-741 -4608,-1924" />
   </g>
   <g
   id="g7">
    <rect
   fill="none"
   stroke="none"
   x="5681"
   y="11707"
   width="1408"
   height="1754"
   id="rect6" />
    <rect
   fill="none"
   stroke="none"
   x="5682"
   y="11709"
   width="1407"
   height="1752"
   id="rect7" />
    <path
   fill="#ffffff"
   stroke="none"
   id="Drawing_6_0"
   d="m 6385,11708 -704,1752 h 1407 z" />
   </g>
   <g
   id="g8">
    <rect
   fill="none"
   stroke="none"
   x="9313"
   y="15467"
   width="1757"
   height="1315"
   id="rect8" />
    <path
   fill="#ffffff"
   stroke="none"
   id="Drawing_7_0"
   d="m 10983,16781 c -122,-986 -773,-1180 -1670,-1314 l 1756,81 z" />
   </g>
   <g
   id="g9">
    <rect
   fill="none"
   stroke="none"
   x="10166"
   y="5443"
   width="1629"
   height="1629"
   id="rect9" />
    <path
   fill="#ffffff"
   stroke="none"
   id="Drawing_8_0"
   d="m 10980,7071 c -150,0 -277,-34 -407,-109 -130,-75 -223,-168 -298,-298 -75,-130 -109,-257 -109,-407 0,-150 34,-277 109,-407 75,-130 168,-223 298,-298 130,-75 257,-109 407,-109 150,0 277,34 407,109 130,75 223,168 298,298 75,130 109,257 109,407 0,150 -34,277 -109,407 -75,130 -168,223 -298,298 -130,75 -257,109 -407,109 z" />
   </g>
   <g
   id="g10">
    <path
   fill="none"
   stroke="#ffffff"
   id="Drawing_9_0"
   stroke-width="600"
   stroke-linejoin="round"
   d="M 10980,5173 V 15331" />
   </g>
   <g
   id="g11">
    <rect
   fill="none"
   stroke="none"
   x="10561"
   y="5813"
   width="840"
   height="840"
   id="rect10" />
    <path
   fill="#ff0000"
   stroke="none"
   id="Drawing_10_0"
   d="m 10981,6652 c -78,0 -143,-18 -210,-56 -67,-39 -115,-87 -154,-154 -38,-67 -56,-132 -56,-209 0,-78 18,-143 56,-210 39,-67 87,-115 154,-154 67,-38 132,-56 210,-56 77,0 142,18 209,56 67,39 115,87 154,154 38,67 56,132 56,210 0,77 -18,142 -56,209 -39,67 -87,115 -154,154 -67,38 -132,56 -209,56 z" />
   </g>
   <g
   id="DrawingGroup_2">
    <g
   id="g12">
     <rect
   fill="none"
   stroke="none"
   x="7013"
   y="11143"
   width="501"
   height="501"
   id="rect11" />
     <path
   fill="#ff0000"
   stroke="none"
   id="Drawing_11_0"
   d="m 7263,11643 c -46,0 -85,-10 -125,-33 -40,-24 -68,-52 -92,-92 -23,-40 -33,-79 -33,-125 0,-46 10,-85 33,-125 24,-40 52,-68 92,-92 40,-23 79,-33 125,-33 46,0 85,10 125,33 40,24 68,52 92,92 23,40 33,79 33,125 0,46 -10,85 -33,125 -24,40 -52,68 -92,92 -40,23 -79,33 -125,33 z" />
    </g>
    <g
   id="g13">
     <rect
   fill="none"
   stroke="none"
   x="7107"
   y="11241"
   width="301"
   height="301"
   id="rect12" />
     <path
   fill="#ffffff"
   stroke="none"
   id="Drawing_12_0"
   d="m 7257,11541 c -28,0 -51,-6 -75,-20 -24,-14 -41,-31 -55,-55 -14,-24 -20,-47 -20,-75 0,-28 6,-51 20,-75 14,-24 31,-41 55,-55 24,-14 47,-20 75,-20 28,0 51,6 75,20 24,14 41,31 55,55 14,24 20,47 20,75 0,28 -6,51 -20,75 -14,24 -31,41 -55,55 -24,14 -47,20 -75,20 z" />
    </g>
   </g>
   <g
   id="DrawingGroup_3">
    <g
   id="g14">
     <rect
   fill="none"
   stroke="none"
   x="7729"
   y="7929"
   width="501"
   height="501"
   id="rect13" />
     <path
   fill="#ff0000"
   stroke="none"
   id="Drawing_13_0"
   d="m 7979,8429 c -46,0 -85,-10 -125,-33 -40,-24 -68,-52 -92,-92 -23,-40 -33,-79 -33,-125 0,-46 10,-85 33,-125 24,-40 52,-68 92,-92 40,-23 79,-33 125,-33 46,0 85,10 125,33 40,24 68,52 92,92 23,40 33,79 33,125 0,46 -10,85 -33,125 -24,40 -52,68 -92,92 -40,23 -79,33 -125,33 z" />
    </g>
    <g
   id="g15">
     <rect
   fill="none"
   stroke="none"
   x="7823"
   y="8027"
   width="301"
   height="301"
   id="rect14" />
     <path
   fill="#ffffff"
   stroke="none"
   id="Drawing_14_0"
   d="m 7973,8327 c -28,0 -51,-6 -75,-20 -24,-14 -41,-31 -55,-55 -14,-24 -20,-47 -20,-75 0,-28 6,-51 20,-75 14,-24 31,-41 55,-55 24,-14 47,-20 75,-20 28,0 51,6 75,20 24,14 41,31 55,55 14,24 20,47 20,75 0,28 -6,51 -20,75 -14,24 -31,41 -55,55 -24,14 -47,20 -75,20 z" />
    </g>
   </g>
   <g
   id="DrawingGroup_4">
    <g
   id="g16">
     <rect
   fill="none"
   stroke="none"
   x="11913"
   y="7229"
   width="501"
   height="501"
   id="rect15" />
     <path
   fill="#ff0000"
   stroke="none"
   id="Drawing_15_0"
   d="m 12163,7729 c -46,0 -85,-10 -125,-33 -40,-24 -68,-52 -92,-92 -23,-40 -33,-79 -33,-125 0,-46 10,-85 33,-125 24,-40 52,-68 92,-92 40,-23 79,-33 125,-33 46,0 85,10 125,33 40,24 68,52 92,92 23,40 33,79 33,125 0,46 -10,85 -33,125 -24,40 -52,68 -92,92 -40,23 -79,33 -125,33 z" />
    </g>
    <g
   id="g17">
     <rect
   fill="none"
   stroke="none"
   x="12007"
   y="7327"
   width="301"
   height="301"
   id="rect16" />
     <path
   fill="#ffffff"
   stroke="none"
   id="Drawing_16_0"
   d="m 12157,7627 c -28,0 -51,-6 -75,-20 -24,-14 -41,-31 -55,-55 -14,-24 -20,-47 -20,-75 0,-28 6,-51 20,-75 14,-24 31,-41 55,-55 24,-14 47,-20 75,-20 28,0 51,6 75,20 24,14 41,31 55,55 14,24 20,47 20,75 0,28 -6,51 -20,75 -14,24 -31,41 -55,55 -24,14 -47,20 -75,20 z" />
    </g>
   </g>
   <g
   id="g18">
    <rect
   fill="none"
   stroke="none"
   x="10095"
   y="14418"
   width="797"
   height="754"
   id="rect17" />
    <path
   fill="#ffffff"
   stroke="none"
   id="Drawing_17_0"
   d="m 10686,14418 c -12,484 -177,612 -590,557 l 795,196 z" />
   </g>
   <g
   id="g19">
    <path
   fill="none"
   stroke="#ffffff"
   id="Drawing_18_0"
   stroke-width="600"
   stroke-linejoin="round"
   d="m 10960,15306 c 2048,49 4411,-741 4608,-1924" />
   </g>
   <g
   id="g20">
    <rect
   fill="none"
   stroke="none"
   x="14878"
   y="11705"
   width="1408"
   height="1754"
   id="rect19" />
    <rect
   fill="none"
   stroke="none"
   x="14878"
   y="11707"
   width="1407"
   height="1752"
   id="rect20" />
    <path
   fill="#ffffff"
   stroke="none"
   id="Drawing_19_0"
   d="m 15581,11706 704,1752 h -1407 z" />
   </g>
   <g
   id="g21">
    <rect
   fill="none"
   stroke="none"
   x="10896"
   y="15465"
   width="1758"
   height="1315"
   id="rect21" />
    <path
   fill="#ffffff"
   stroke="none"
   id="Drawing_20_0"
   d="m 10983,16779 c 122,-986 773,-1180 1670,-1314 l -1756,81 z" />
   </g>
   <g
   id="g22">
    <rect
   fill="none"
   stroke="none"
   x="11075"
   y="14415"
   width="796"
   height="755"
   id="rect22" />
    <path
   fill="#ffffff"
   stroke="none"
   id="Drawing_21_0"
   d="m 11280,14416 c 12,484 177,612 590,557 l -795,196 z" />
   </g>
  </g>
  <g
   id="DrawingGroup_5">
   <g
   id="g23">
    <rect
   fill="none"
   stroke="none"
   x="3393"
   y="11611"
   width="1688"
   height="1619"
   id="rect23" />
    <path
   fill="#ffffff"
   stroke="none"
   id="Drawing_22_0"
   d="m 4457,12486 c -252,248 -503,495 -754,743 -33,-170 -65,-340 -98,-510 148,-132 296,-264 443,-396 -186,-67 -372,-135 -557,-203 -33,-169 -65,-339 -98,-508 325,137 650,275 975,412 208,-40 415,-80 623,-119 30,154 59,308 89,462 -208,39 -416,79 -623,119 z" />
   </g>
   <g
   id="g24">
    <rect
   fill="none"
   stroke="none"
   x="3404"
   y="10095"
   width="1530"
   height="1648"
   id="rect24" />
    <path
   fill="#ffffff"
   stroke="none"
   id="Drawing_23_0"
   d="m 4926,10586 c -83,24 -167,48 -251,73 -2,175 -4,351 -6,527 83,26 166,52 249,78 -2,159 -4,318 -6,478 -502,-195 -1005,-389 -1507,-583 2,-172 4,-343 6,-515 507,-183 1014,-366 1521,-549 -2,164 -4,327 -6,491 z m -579,498 c 1,-110 2,-220 4,-330 -183,53 -366,105 -549,158 182,57 363,114 545,172 z" />
   </g>
   <g
   id="g25">
    <rect
   fill="none"
   stroke="none"
   x="3607"
   y="8424"
   width="1601"
   height="1529"
   id="rect25" />
    <path
   fill="#ffffff"
   stroke="none"
   id="Drawing_24_0"
   d="m 4617,8927 227,-365 c 104,57 186,124 245,201 59,77 96,164 111,259 15,94 5,207 -31,338 -43,158 -101,282 -175,370 -73,87 -178,152 -315,193 -137,41 -296,37 -478,-12 -243,-66 -412,-181 -508,-345 -95,-164 -111,-363 -47,-598 50,-183 126,-318 229,-402 103,-85 238,-132 405,-142 l -22,421 c -47,2 -82,8 -106,18 -40,16 -74,40 -102,71 -28,31 -48,70 -60,115 -28,101 -8,191 60,267 50,58 141,104 272,140 162,44 280,50 354,18 73,-32 122,-93 146,-181 23,-85 16,-157 -20,-213 -37,-57 -98,-108 -185,-153 z" />
   </g>
   <g
   id="g26">
    <rect
   fill="none"
   stroke="none"
   x="4039"
   y="6596"
   width="2032"
   height="2005"
   id="rect26" />
    <path
   fill="#ffffff"
   stroke="none"
   id="Drawing_25_0"
   d="m 5355,8599 c -439,-250 -877,-501 -1315,-751 78,-136 156,-273 233,-409 154,88 307,175 460,263 83,-145 165,-289 248,-434 -153,-88 -306,-175 -460,-263 78,-136 156,-272 234,-408 438,250 876,501 1314,751 -77,136 -155,273 -233,409 -179,-102 -357,-204 -536,-307 -83,145 -165,290 -248,434 179,102 357,205 536,307 -78,136 -156,272 -233,408 z" />
   </g>
   <g
   id="g27">
    <rect
   fill="none"
   stroke="none"
   x="4913"
   y="5335"
   width="1754"
   height="1719"
   id="rect27" />
    <path
   fill="#ffffff"
   stroke="none"
   id="Drawing_26_0"
   d="m 5184,6624 c -90,-83 -180,-166 -271,-249 318,-346 636,-693 955,-1040 90,83 180,166 270,249 -106,115 -212,231 -318,347 282,258 564,516 845,775 -106,115 -212,231 -318,346 -282,-258 -563,-516 -845,-775 -106,116 -212,231 -318,347 z" />
   </g>
   <g
   id="g28">
    <rect
   fill="none"
   stroke="none"
   x="6081"
   y="4890"
   width="1314"
   height="1479"
   id="rect28" />
    <path
   fill="#ffffff"
   stroke="none"
   id="Drawing_27_0"
   d="m 7025,6368 c -314,-395 -629,-789 -944,-1184 123,-98 245,-195 368,-293 315,394 629,789 944,1184 -122,97 -245,195 -368,293 z" />
   </g>
   <g
   id="g29">
    <rect
   fill="none"
   stroke="none"
   x="6822"
   y="3923"
   width="1979"
   height="2011"
   id="rect29" />
    <path
   fill="#ffffff"
   stroke="none"
   id="Drawing_28_0"
   d="m 7522,5932 c -233,-447 -466,-895 -700,-1342 130,-68 259,-135 388,-203 294,159 588,318 882,476 -128,-245 -255,-490 -383,-736 130,-68 260,-136 391,-204 233,448 466,896 700,1343 -131,68 -261,136 -391,204 -293,-158 -585,-316 -877,-474 127,244 254,488 381,732 -130,68 -260,136 -391,204 z" />
   </g>
   <g
   id="g30">
    <rect
   fill="none"
   stroke="none"
   x="8633"
   y="3505"
   width="1656"
   height="1617"
   id="rect30" />
    <path
   fill="#ffffff"
   stroke="none"
   id="Drawing_29_0"
   d="m 9809,4438 -301,70 -70,-300 701,-165 148,631 c -113,125 -217,217 -313,275 -95,58 -214,104 -356,138 -175,41 -325,44 -450,10 -124,-34 -231,-103 -319,-207 -89,-104 -151,-233 -187,-387 -38,-161 -38,-310 1,-445 38,-135 114,-249 229,-341 89,-71 218,-127 388,-167 164,-38 290,-52 378,-41 88,10 166,41 234,91 69,50 128,120 177,210 l -439,186 c -31,-51 -71,-86 -120,-106 -49,-20 -107,-22 -172,-6 -98,23 -168,76 -210,158 -41,83 -45,199 -10,348 38,159 94,265 170,319 76,54 167,68 274,43 51,-12 98,-31 140,-57 43,-26 90,-64 141,-115 z" />
   </g>
   <g
   id="g31">
    <rect
   fill="none"
   stroke="none"
   x="10837"
   y="3381"
   width="1484"
   height="1580"
   id="rect31" />
    <path
   fill="#ffffff"
   stroke="none"
   id="Drawing_30_0"
   d="m 11884,4334 400,159 c -38,112 -89,204 -155,276 -65,72 -143,124 -234,156 -91,32 -204,41 -338,30 -164,-14 -296,-50 -395,-107 -100,-57 -182,-149 -247,-276 -65,-127 -89,-284 -73,-472 22,-251 105,-438 249,-561 144,-123 338,-174 580,-153 189,16 335,67 437,154 102,86 172,210 211,374 l -418,53 c -10,-46 -22,-80 -36,-102 -23,-37 -53,-66 -88,-88 -36,-22 -78,-35 -124,-39 -105,-9 -189,27 -253,107 -47,60 -77,157 -89,293 -14,167 1,285 46,351 44,67 112,104 203,112 89,8 158,-12 207,-58 50,-46 89,-116 117,-209 z" />
   </g>
   <g
   id="g32">
    <rect
   fill="none"
   stroke="none"
   x="12248"
   y="3556"
   width="1248"
   height="1806"
   id="rect32" />
    <path
   fill="#ffffff"
   stroke="none"
   id="Drawing_31_0"
   d="m 12249,4999 c 153,-481 306,-962 459,-1443 150,48 299,96 449,143 -116,364 -232,729 -348,1093 228,73 457,146 686,218 -37,117 -74,234 -112,351 -378,-121 -756,-241 -1134,-362 z" />
   </g>
   <g
   id="g33">
    <rect
   fill="none"
   stroke="none"
   x="13601"
   y="4039"
   width="1804"
   height="1842"
   id="rect33" />
    <path
   fill="#ffffff"
   stroke="none"
   id="Drawing_32_0"
   d="m 14534,5327 461,-804 408,234 -450,785 c -45,77 -99,144 -163,199 -64,55 -136,94 -217,116 -81,23 -156,28 -224,16 -95,-15 -197,-55 -307,-118 -64,-36 -130,-80 -200,-132 -70,-52 -122,-106 -157,-162 -35,-55 -60,-120 -73,-193 -14,-73 -13,-140 1,-201 23,-98 53,-179 91,-243 l 450,-785 408,235 -462,804 c -41,71 -54,138 -39,201 15,62 57,113 125,152 67,39 132,49 193,32 61,-18 113,-64 155,-136 z" />
   </g>
   <g
   id="g34">
    <rect
   fill="none"
   stroke="none"
   x="14651"
   y="4976"
   width="1846"
   height="1882"
   id="rect34" />
    <path
   fill="#ffffff"
   stroke="none"
   id="Drawing_33_0"
   d="m 14651,6075 1043,-1098 632,600 c 106,100 162,203 169,309 7,105 -27,197 -100,274 -61,64 -134,100 -220,107 -57,5 -120,-10 -191,-42 64,96 92,186 87,268 -6,83 -42,160 -109,230 -54,57 -116,96 -186,116 -70,21 -140,23 -211,6 -44,-11 -99,-39 -163,-86 -86,-63 -141,-106 -166,-129 z m 1172,-551 -193,203 142,134 c 51,48 94,73 131,74 37,1 71,-15 103,-48 29,-31 42,-65 39,-101 -3,-37 -29,-78 -79,-125 z m -395,416 -213,224 172,163 c 58,55 109,84 153,86 43,1 82,-15 115,-50 31,-33 45,-71 40,-113 -5,-42 -37,-91 -96,-147 z" />
   </g>
   <g
   id="g35">
    <rect
   fill="none"
   stroke="none"
   x="16104"
   y="6778"
   width="1621"
   height="1581"
   id="rect35" />
    <path
   fill="#ffffff"
   stroke="none"
   id="Drawing_34_0"
   d="m 16941,7903 97,419 c -114,33 -219,43 -316,31 -96,-13 -183,-48 -261,-105 -78,-56 -150,-143 -217,-261 -82,-142 -127,-271 -137,-385 -10,-114 18,-234 86,-360 67,-126 183,-235 347,-329 219,-125 420,-163 603,-115 183,49 335,179 456,390 94,165 135,314 122,447 -13,133 -75,261 -187,386 l -281,-313 c 31,-34 52,-64 62,-88 17,-39 25,-80 22,-122 -2,-42 -15,-83 -38,-124 -53,-92 -130,-140 -232,-147 -76,-5 -173,26 -291,93 -146,84 -234,163 -263,238 -29,75 -21,152 24,231 44,77 99,123 165,137 66,14 146,7 239,-23 z" />
   </g>
   <g
   id="g36">
    <rect
   fill="none"
   stroke="none"
   x="16607"
   y="8137"
   width="1816"
   height="1669"
   id="rect36" />
    <path
   fill="#ffffff"
   stroke="none"
   id="Drawing_35_0"
   d="m 16607,8582 c 482,-148 965,-296 1447,-444 123,398 245,796 367,1194 -103,32 -206,63 -309,95 -76,-248 -152,-496 -229,-745 -74,23 -149,46 -224,69 72,235 144,469 216,703 -99,30 -197,60 -296,91 -72,-235 -144,-469 -215,-703 -94,29 -188,58 -282,86 80,258 159,516 238,773 -112,35 -225,69 -337,104 -126,-408 -251,-815 -376,-1223 z" />
   </g>
   <g
   id="g37">
    <rect
   fill="none"
   stroke="none"
   x="17017"
   y="9866"
   width="1555"
   height="1559"
   id="rect37" />
    <path
   fill="#ffffff"
   stroke="none"
   id="Drawing_36_0"
   d="m 17040,10410 -23,-470 1513,-74 38,780 c 7,144 0,255 -21,333 -21,77 -64,141 -129,191 -64,50 -145,78 -241,83 -84,4 -157,-11 -219,-45 -63,-33 -115,-81 -156,-143 -26,-40 -48,-95 -67,-165 -17,56 -34,96 -51,122 -12,18 -37,44 -77,78 -40,34 -70,57 -92,69 l -426,254 -25,-528 452,-270 c 59,-34 96,-64 113,-89 22,-35 32,-73 30,-115 l -2,-41 z m 1204,-59 -308,15 9,197 c 1,22 10,63 27,123 8,31 25,55 51,74 27,18 57,26 90,25 49,-3 86,-20 110,-52 25,-32 35,-91 31,-177 z" />
   </g>
   <g
   id="g38">
    <rect
   fill="none"
   stroke="none"
   x="16781"
   y="11508"
   width="1782"
   height="1725"
   id="rect38" />
    <path
   fill="#ffffff"
   stroke="none"
   id="Drawing_37_0"
   d="m 17080,11508 c 494,105 988,209 1482,314 -31,143 -61,285 -91,428 -310,126 -619,252 -929,378 271,57 542,114 813,172 -31,144 -61,287 -92,431 -494,-104 -987,-209 -1481,-313 30,-144 61,-288 91,-432 308,-125 616,-250 923,-375 -269,-57 -538,-114 -807,-171 30,-144 61,-288 91,-432 z" />
   </g>
  </g>
  <g
   id="DrawingGroup_6">
   <g
   id="g39">
    <rect
   fill="none"
   stroke="none"
   x="4963"
   y="14673"
   width="634"
   height="702"
   id="rect39" />
    <path
   fill="#ffffff"
   stroke="none"
   id="Drawing_38_0"
   d="m 4963,14869 c 92,-65 184,-130 277,-195 118,168 237,336 356,504 -92,65 -184,130 -276,195 -119,-168 -238,-336 -357,-504 z" />
   </g>
   <g
   id="g40">
    <rect
   fill="none"
   stroke="none"
   x="6386"
   y="15821"
   width="1667"
   height="1685"
   id="rect40" />
    <path
   fill="#ffffff"
   stroke="none"
   id="Drawing_39_0"
   d="m 7376,16992 -256,-173 173,-255 597,403 -363,537 c -169,2 -307,-12 -415,-43 -107,-31 -222,-87 -343,-169 -149,-101 -253,-208 -312,-323 -60,-114 -81,-240 -65,-375 17,-136 69,-270 157,-400 93,-138 203,-238 328,-302 126,-63 261,-84 406,-63 113,17 242,75 386,172 140,95 235,178 287,250 52,72 83,150 92,234 9,85 -2,176 -35,273 l -434,-197 c 16,-57 15,-111 -4,-160 -19,-49 -56,-93 -112,-131 -83,-56 -169,-71 -258,-46 -89,25 -177,102 -263,229 -91,135 -131,248 -119,341 12,92 63,169 154,230 44,30 89,51 137,65 48,13 108,22 180,25 z" />
   </g>
   <g
   id="g41">
    <rect
   fill="none"
   stroke="none"
   x="7782"
   y="16438"
   width="1699"
   height="1866"
   id="rect41" />
    <path
   fill="#ffffff"
   stroke="none"
   id="Drawing_40_0"
   d="m 7782,17859 c 175,-473 350,-947 525,-1420 391,144 781,289 1172,433 -37,101 -75,202 -112,303 -244,-90 -487,-180 -731,-270 -27,74 -54,147 -81,221 230,85 459,170 689,255 -35,96 -71,193 -107,289 -230,-85 -459,-170 -689,-255 -34,92 -68,184 -102,276 253,94 505,187 758,281 -41,110 -81,220 -122,331 -400,-148 -800,-296 -1200,-444 z" />
   </g>
   <g
   id="g42">
    <rect
   fill="none"
   stroke="none"
   x="9411"
   y="16910"
   width="1605"
   height="1670"
   id="rect42" />
    <path
   fill="#ffffff"
   stroke="none"
   id="Drawing_41_0"
   d="m 9412,18416 c 57,-502 114,-1004 171,-1505 145,16 290,33 435,49 155,296 309,593 464,889 31,-275 63,-550 94,-825 146,16 292,33 438,50 -57,501 -114,1003 -171,1504 -146,-16 -292,-33 -438,-50 -154,-294 -308,-589 -462,-883 -31,273 -62,547 -93,820 -146,-16 -292,-33 -438,-49 z" />
   </g>
   <g
   id="g43">
    <rect
   fill="none"
   stroke="none"
   x="11120"
   y="16906"
   width="1465"
   height="1665"
   id="rect43" />
    <path
   fill="#ffffff"
   stroke="none"
   id="Drawing_42_0"
   d="m 11316,18569 c -65,-500 -130,-1001 -195,-1501 413,-54 826,-108 1239,-161 14,107 28,214 42,321 -258,33 -515,66 -773,100 10,78 20,155 30,233 243,-31 486,-63 729,-94 13,102 27,204 40,306 -243,31 -486,63 -729,94 13,97 25,195 38,292 267,-35 534,-70 802,-104 15,116 30,233 45,350 -423,55 -846,109 -1268,164 z" />
   </g>
   <g
   id="g44">
    <rect
   fill="none"
   stroke="none"
   x="12462"
   y="16303"
   width="1566"
   height="1806"
   id="rect44" />
    <path
   fill="#ffffff"
   stroke="none"
   id="Drawing_43_0"
   d="m 13554,18107 c -364,-398 -728,-797 -1091,-1196 152,-60 303,-120 455,-180 240,295 479,591 719,886 -29,-379 -57,-758 -86,-1138 147,-58 295,-117 442,-175 11,538 23,1077 34,1616 -158,62 -316,125 -473,187 z" />
   </g>
   <g
   id="g45">
    <rect
   fill="none"
   stroke="none"
   x="14075"
   y="15491"
   width="1929"
   height="1962"
   id="rect45" />
    <path
   fill="#ffffff"
   stroke="none"
   id="Drawing_44_0"
   d="m 14972,17452 c -299,-407 -598,-814 -897,-1220 336,-247 671,-494 1007,-741 64,87 128,174 191,261 -209,154 -418,308 -627,462 46,63 93,126 139,189 198,-145 395,-290 592,-435 61,82 122,165 183,248 -197,145 -395,291 -592,436 58,79 116,158 174,237 217,-160 435,-320 652,-480 69,95 139,190 209,285 -344,252 -687,505 -1031,758 z" />
   </g>
   <g
   id="g46">
    <rect
   fill="none"
   stroke="none"
   x="16468"
   y="14579"
   width="629"
   height="702"
   id="rect46" />
    <path
   fill="#ffffff"
   stroke="none"
   id="Drawing_45_0"
   d="m 16747,15280 c -93,-64 -186,-127 -279,-191 116,-170 232,-340 348,-510 93,64 187,127 280,191 -117,170 -233,340 -349,510 z" />
   </g>
  </g>
 </g>
</svg>
